<?xml version="1.0" encoding="UTF-8" standalone="no"?>
<svg
   xmlns:dc="http://purl.org/dc/elements/1.1/"
   xmlns:cc="http://creativecommons.org/ns#"
   xmlns:rdf="http://www.w3.org/1999/02/22-rdf-syntax-ns#"
   xmlns:svg="http://www.w3.org/2000/svg"
   xmlns="http://www.w3.org/2000/svg"
   version="1.1"
   id="svg2"
   viewBox="0 0 497.7988 497.79685"
   height="140.48933mm"
   width="140.48988mm">
  <defs
     id="defs4" />
  <metadata
     id="metadata7">
    <rdf:RDF>
      <cc:Work
         rdf:about="">
        <dc:format>image/svg+xml</dc:format>
        <dc:type
           rdf:resource="http://purl.org/dc/dcmitype/StillImage" />
        <dc:title></dc:title>
      </cc:Work>
    </rdf:RDF>
  </metadata>
  <g
     transform="translate(746.14648,-172.55273)"
     id="layer1">
    <path
       id="path4138"
       d="m -746.14648,172.55273 0,497.79688 497.79882,0 0,-497.79688 -497.79882,0 z m 158.89843,66.34375 c 35.39887,0.0459 68.72727,18.38004 90.02149,49.52149 21.28512,-31.12818 54.59477,-49.46079 89.97851,-49.52149 62.32989,-1.7e-4 112.85812,55.64534 112.85743,124.28711 -0.0489,25.52639 -7.23384,50.41712 -20.57813,71.28907 -26.52183,33.12907 -65.28949,69.17483 -83.00977,84.76562 l -99.26953,84.76758 -99.26953,-84.76758 c -15.85528,-13.53872 -58.89129,-57.69339 -83.10547,-84.76562 -13.31033,-20.88431 -20.46152,-45.77403 -20.48242,-71.28907 -7e-4,-68.64177 50.52753,-124.28729 112.85742,-124.28711 z"
       style="opacity:1;fill:#000000;fill-opacity:0.2179487;stroke:none;stroke-width:5.0999999;stroke-linecap:round;stroke-linejoin:miter;stroke-miterlimit:4;stroke-dasharray:none;stroke-dashoffset:0;stroke-opacity:1" />
  </g>
</svg>
